# xmcd CD database file
#
# Track frame offsets:
#	150
#	8865
#	13527
#	35855
#	46435
#	58782
#	66152
#	73047
#	87085
#	93330
#	104267
#	123997
#	132802
#	141590
#	155300
#	162235
#	176600
#	183977
#	203190
#	210130
#	223827
#
# Disc length: 3051 seconds
#
# Revision: 4
# Processed by: cddbd v1.5.2PL0 Copyright (c) Steve Scherf et al.
# Submitted via: CDex 1.51
#
DISCID=2c0be915
DTITLE=Marin Marais  - Pièces de Viole - Troisième Livre (1711) - Deuxième Partie  [CD2]
DYEAR=2006
DGENRE=Classique
TTITLE0=Suite en do majeur N°VIII - Prélude 108
TTITLE1=Suite en do majeur N°VIII - Caprice 109
TTITLE2=Suite en do majeur N°VIII - Allemande et son double 110-111
TTITLE3=Suite en do majeur N°VIII - Sarabande 112
TTITLE4=Suite en do majeur N°VIII - Sarabande en Rondeau 113
TTITLE5=Suite en do majeur N°VIII - Courante et son double 114-115
TTITLE6=Suite en do majeur N°VIII - Gigue 116
TTITLE7=Suite en do majeur N°VIII - Gavotte en Rondeau 117
TTITLE8=Suite en do majeur N°VIII - Menuets 118-119
TTITLE9=Suite en do majeur N°VIII - Saillie du Café et son double 120-121
TTITLE10=Suite en do majeur N°VIII - Chaconne 112
TTITLE11=Suite en do mineur N°IX - Prélude 123
TTITLE12=Suite en do mineur N°IX - Fantaisie et son double 124-125
TTITLE13=Suite en do mineur N°IX - Allemande 126
TTITLE14=Suite en do mineur N°IX - Courante 127
TTITLE15=Suite en do mineur N°IX - Sarabande grave 128
TTITLE16=Suite en do mineur N°IX - Gigue 129
TTITLE17=Suite en do mineur N°IX - Rondeau 130
TTITLE18=Suite en do mineur N°IX - Gavotte 131
TTITLE19=Suite en do mineur N°IX - Menuets 132-133
TTITLE20=Suite en do mineur N°IX - Contrefaiseurs 134
EXTD=YEAR: 2006
EXTT0=
EXTT1=
EXTT2=
EXTT3=
EXTT4=
EXTT5=
EXTT6=
EXTT7=
EXTT8=
EXTT9=
EXTT10=
EXTT11=
EXTT12=
EXTT13=
EXTT14=
EXTT15=
EXTT16=
EXTT17=
EXTT18=
EXTT19=
EXTT20=
PLAYORDER=
